<svg width="72" height="72" viewBox="0 0 72 72" fill="none" xmlns="http://www.w3.org/2000/svg">
<g id="001-responsive">
<path id="Shape" fill-rule="evenodd" clip-rule="evenodd" d="M30.0125 31.491C30.6663 31.491 31.1953 32.0206 31.1953 32.6737V63.8688C31.1953 64.522 30.6663 65.0516 30.0125 65.0516H4.87904C4.22587 65.0516 3.69629 64.522 3.69629 63.8688V32.6737C3.69629 32.0206 4.22587 31.491 4.87904 31.491H30.0125ZM6.06179 62.6861H28.8298V33.8565H6.06179V62.6861Z" fill="black"/>
<path id="Path" d="M18.636 66.0865H16.2653C15.6115 66.0865 15.0825 66.6161 15.0825 67.2692C15.0825 67.9224 15.6115 68.452 16.2653 68.452H18.636C19.2891 68.452 19.8187 67.9224 19.8187 67.2692C19.8187 66.6161 19.2891 66.0865 18.636 66.0865Z" fill="black"/>
<path id="Shape_2" fill-rule="evenodd" clip-rule="evenodd" d="M68.3295 0.000253475H52.2988C50.3208 0.000253475 48.6408 1.54568 48.6408 3.52367V9.75795H12.2926C8.60225 9.76893 5.61708 12.7645 5.61823 16.4542V27.7949H4.89403C2.16815 27.7949 0.000160656 30.0622 0.000160656 32.791V66.9591C-0.00734704 68.2597 0.506064 69.5094 1.42662 70.4288C2.34661 71.3482 3.59635 71.8611 4.89691 71.8524H30.9827C32.05 71.8616 33.0739 71.4343 33.8183 70.6697C34.561 69.9039 35.0392 68.9319 34.8913 67.8716V62.0947H62.4671C66.1667 62.0884 69.1692 59.0986 69.1911 55.3984V51.1693C69.1738 50.5051 68.6321 49.975 67.9679 49.9715H66.2342V38.4397H68.3295C70.3075 38.4397 71.8523 36.7608 71.8523 34.7829V3.52367C71.8633 2.58579 71.496 1.68371 70.8324 1.02015C70.1694 0.357158 69.2668 -0.0107193 68.3295 0.000253475ZM51.0063 7.68814H69.4868V28.8298H51.0063V7.68814ZM68.3295 2.36576H52.2988C51.6254 2.36576 51.0063 2.85029 51.0063 3.52367V5.32264H69.4868V3.52367C69.4989 3.21355 69.3806 2.91209 69.1611 2.69205C68.9411 2.4726 68.6396 2.35421 68.3295 2.36576ZM7.98373 16.4542C7.98085 14.0703 9.90801 12.1333 12.2926 12.1235H48.6408V15.5239H12.2198C11.5666 15.5239 11.0885 16.1181 11.0885 16.7713V27.7949H7.98373V16.4542ZM30.9827 69.4869C31.421 69.5008 31.8455 69.3333 32.1562 69.0237C32.4415 68.7252 32.5888 68.3215 32.5628 67.9097C32.5628 67.9036 32.5538 67.9016 32.5449 67.8996C32.5359 67.8976 32.527 67.8956 32.527 67.8895V32.791C32.527 31.3657 31.4274 30.1604 29.9986 30.1604H4.89691C3.47161 30.1604 2.36566 31.3657 2.36566 32.7945V66.9557C2.357 67.6308 2.6215 68.2799 3.09853 68.7569C3.57614 69.2334 4.22584 69.4967 4.90096 69.4869H30.9827ZM30.0021 27.7949H13.454V17.8894H48.6408V34.7829C48.6708 36.7909 50.2914 38.4108 52.2988 38.4397H58.3985V49.9715H43.9964C43.6655 49.9744 43.3502 50.1153 43.1267 50.3602L42.0104 51.5539C41.1903 52.4352 40.0393 52.9336 38.8352 52.9284H34.8913V32.7875C34.8913 30.0622 32.7308 27.7949 30.0021 27.7949ZM62.4671 59.7292C64.8609 59.724 66.8048 57.7928 66.8256 55.3984V52.337H44.515L43.7498 53.1536C42.4816 54.5212 40.7 55.2968 38.8352 55.2939H34.8913V59.7292H62.4671ZM63.8687 49.9715H60.764V38.4397H63.8687V49.9715ZM52.2988 36.0742H68.3295C69.0029 36.0742 69.4868 35.4568 69.4868 34.7829V31.1953H51.0063V34.7829C51.0346 35.4845 51.5977 36.047 52.2988 36.0742Z" fill="black"/>
<path id="Path_2" d="M61.9467 32.2302H58.8419C58.1888 32.2302 57.6592 32.7598 57.6592 33.413C57.6592 34.0661 58.1888 34.5957 58.8419 34.5957H61.9467C62.6004 34.5957 63.1294 34.0661 63.1294 33.413C63.1294 32.7598 62.6004 32.2302 61.9467 32.2302Z" fill="black"/>
</g>
</svg>
